<svg width="53" height="32" viewBox="0 0 53 32" fill="none" xmlns="http://www.w3.org/2000/svg">
<mask id="path-1-inside-1_3847_1499" fill="white">
<path fill-rule="evenodd" clip-rule="evenodd" d="M0 0H18.4092V0.01426C22.1967 0.237027 25.1916 3.0528 25.1916 6.49364C25.1916 9.93448 22.1967 12.7503 18.4092 12.973V12.9872V27.8298H0V12.9872V0.927794V0Z"/>
</mask>
<path fill-rule="evenodd" clip-rule="evenodd" d="M0 0H18.4092V0.01426C22.1967 0.237027 25.1916 3.0528 25.1916 6.49364C25.1916 9.93448 22.1967 12.7503 18.4092 12.973V12.9872V27.8298H0V12.9872V0.927794V0Z" fill="#577453"/>
<path d="M18.4092 0H19.9092V-1.5H18.4092V0ZM0 0V-1.5H-1.5V0H0ZM18.4092 0.01426H16.9092V1.42863L18.3212 1.51167L18.4092 0.01426ZM18.4092 12.973L18.3212 11.4756L16.9092 11.5587V12.973H18.4092ZM18.4092 27.8298V29.3298H19.9092V27.8298H18.4092ZM0 27.8298H-1.5V29.3298H0V27.8298ZM18.4092 -1.5H0V1.5H18.4092V-1.5ZM19.9092 0.01426V0H16.9092V0.01426H19.9092ZM26.6916 6.49364C26.6916 2.1128 22.9234 -1.22282 18.4973 -1.48315L18.3212 1.51167C21.47 1.69688 23.6916 3.99281 23.6916 6.49364H26.6916ZM18.4973 14.4704C22.9234 14.2101 26.6916 10.8745 26.6916 6.49364H23.6916C23.6916 8.99447 21.47 11.2904 18.3212 11.4756L18.4973 14.4704ZM16.9092 12.973V12.9872H19.9092V12.973H16.9092ZM16.9092 12.9872V27.8298H19.9092V12.9872H16.9092ZM18.4092 26.3298H0V29.3298H18.4092V26.3298ZM1.5 27.8298V12.9872H-1.5V27.8298H1.5ZM1.5 12.9872V0.927794H-1.5V12.9872H1.5ZM-1.5 0V0.927794H1.5V0H-1.5Z" fill="#202020" mask="url(#path-1-inside-1_3847_1499)"/>
<path d="M25.1165 25.5371L25.1166 25.5385C25.2318 28.6274 22.6394 31.25 19.3258 31.25H4.57324V12.3414L5.96557 12.3411L10.7873 12.3404C14.3609 12.3401 18.1141 12.3401 18.8397 12.3416C19.9994 12.344 21.103 11.9435 21.953 11.5094C22.8029 11.0754 23.4704 10.571 23.7721 10.2821C23.9722 10.0906 24.2011 9.74687 24.3961 9.43566C24.4423 9.362 24.4894 9.28542 24.537 9.20678L25.1165 25.5371Z" fill="white" stroke="#202020" stroke-width="1.5"/>
<mask id="path-4-inside-2_3847_1499" fill="white">
<path fill-rule="evenodd" clip-rule="evenodd" d="M53 32L35.0751 32L34.5908 32L34.5908 31.9858C30.8032 31.7631 27.8083 28.9473 27.8083 25.5064C27.8083 22.0655 30.8032 19.2497 34.5908 19.027L34.5908 19.0128L34.5908 4.17035L53 4.17035L53 19.0128L53 31.0723L53 32Z"/>
</mask>
<path fill-rule="evenodd" clip-rule="evenodd" d="M53 32L35.0751 32L34.5908 32L34.5908 31.9858C30.8032 31.7631 27.8083 28.9473 27.8083 25.5064C27.8083 22.0655 30.8032 19.2497 34.5908 19.027L34.5908 19.0128L34.5908 4.17035L53 4.17035L53 19.0128L53 31.0723L53 32Z" fill="#A13329"/>
<path d="M53 32L53 33.5L54.5 33.5L54.5 32L53 32ZM34.5908 32L33.0908 32L33.0908 33.5L34.5908 33.5L34.5908 32ZM34.5908 31.9858L36.0908 31.9858L36.0908 30.5714L34.6788 30.4884L34.5908 31.9858ZM34.5908 19.027L34.6788 20.5244L36.0908 20.4414L36.0908 19.027L34.5908 19.027ZM34.5908 4.17035L34.5908 2.67035L33.0908 2.67035L33.0908 4.17035L34.5908 4.17035ZM53 4.17035L54.5 4.17035L54.5 2.67035L53 2.67035L53 4.17035ZM53 19.0128L54.5 19.0128L53 19.0128ZM53 31.0723L51.5 31.0723L53 31.0723ZM35.0751 33.5L53 33.5L53 30.5L35.0751 30.5L35.0751 33.5ZM34.5908 33.5L35.0751 33.5L35.0751 30.5L34.5908 30.5L34.5908 33.5ZM33.0908 31.9858L33.0908 32L36.0908 32L36.0908 31.9858L33.0908 31.9858ZM26.3083 25.5064C26.3083 29.8873 30.0766 33.223 34.5027 33.4832L34.6788 30.4884C31.5299 30.3032 29.3083 28.0073 29.3083 25.5064L26.3083 25.5064ZM34.5027 17.5296C30.0766 17.7899 26.3083 21.1255 26.3083 25.5064L29.3083 25.5064C29.3083 23.0056 31.5299 20.7096 34.6788 20.5244L34.5027 17.5296ZM36.0908 19.027L36.0908 19.0128L33.0908 19.0128L33.0908 19.027L36.0908 19.027ZM36.0908 19.0128L36.0908 4.17035L33.0908 4.17035L33.0908 19.0128L36.0908 19.0128ZM34.5908 5.67035L53 5.67035L53 2.67035L34.5908 2.67035L34.5908 5.67035ZM51.5 4.17035L51.5 19.0128L54.5 19.0128L54.5 4.17035L51.5 4.17035ZM51.5 19.0128L51.5 31.0723L54.5 31.0723L54.5 19.0128L51.5 19.0128ZM54.5 32L54.5 31.0723L51.5 31.0723L51.5 32L54.5 32Z" fill="#202020" mask="url(#path-4-inside-2_3847_1499)"/>
<path d="M27.8835 6.46277L27.8834 6.46141C27.7682 3.37248 30.3606 0.74992 33.6742 0.749921L48.4268 0.749922L48.4268 19.6585L47.0344 19.6587L42.2127 19.6594C38.6391 19.6598 34.8859 19.6598 34.1603 19.6583C33.0006 19.6559 31.897 20.0564 31.047 20.4905C30.1971 20.9245 29.5296 21.4289 29.2279 21.7178C29.0278 21.9093 28.7989 22.253 28.6039 22.5642C28.5577 22.6379 28.5106 22.7145 28.463 22.7931L27.8835 6.46277Z" fill="white" stroke="#202020" stroke-width="1.5"/>
</svg>
